<?xml version="1.0" encoding="UTF-8" standalone="no"?>
<!-- Created with Inkscape (http://www.inkscape.org/) -->

<svg
   xmlns:dc="http://purl.org/dc/elements/1.1/"
   xmlns:cc="http://creativecommons.org/ns#"
   xmlns:rdf="http://www.w3.org/1999/02/22-rdf-syntax-ns#"
   xmlns:svg="http://www.w3.org/2000/svg"
   xmlns="http://www.w3.org/2000/svg"
   xmlns:sodipodi="http://sodipodi.sourceforge.net/DTD/sodipodi-0.dtd"
   xmlns:inkscape="http://www.inkscape.org/namespaces/inkscape"
   width="210mm"
   height="297mm"
   viewBox="0 0 210 297"
   version="1.1"
   id="svg8">
  <defs
     id="defs2">
    <inkscape:path-effect
       effect="powerstroke"
       id="path-effect16"
       is_visible="true"
       offset_points="0,0.13229166"
       sort_points="true"
       interpolator_type="CubicBezierJohan"
       interpolator_beta="0.2"
       start_linecap_type="zerowidth"
       linejoin_type="extrp_arc"
       miter_limit="4"
       end_linecap_type="zerowidth" />
    <inkscape:path-effect
       effect="powerstroke"
       id="path-effect12"
       is_visible="true"
       offset_points="0,0.13229166"
       sort_points="true"
       interpolator_type="CubicBezierJohan"
       interpolator_beta="0.2"
       start_linecap_type="zerowidth"
       linejoin_type="extrp_arc"
       miter_limit="4"
       end_linecap_type="zerowidth" />
  </defs>
  <sodipodi:namedview
     id="base"
     pagecolor="#ffffff"
     bordercolor="#666666"
     borderopacity="1.0"
     inkscape:pageopacity="0.0"
     inkscape:pageshadow="2"
     inkscape:zoom="0.35"
     inkscape:cx="400"
     inkscape:cy="560"
     inkscape:document-units="mm"
     inkscape:current-layer="layer1"
     showgrid="false"
     inkscape:snap-global="true" />
  <metadata
     id="metadata5">
    <rdf:RDF>
      <cc:Work
         rdf:about="">
        <dc:format>image/svg+xml</dc:format>
        <dc:type
           rdf:resource="http://purl.org/dc/dcmitype/StillImage" />
      </cc:Work>
    </rdf:RDF>
  </metadata>
  <g
     inkscape:label="Layer 1"
     inkscape:groupmode="layer"
     id="layer1">
    <path
       style="fill:#000000;fill-rule:nonzero;stroke:none;stroke-width:0.26458332px;stroke-linecap:butt;stroke-linejoin:miter;stroke-opacity:1"
       d="m -1099.9107,-0.84523809 c 0,0 -0.1323,-4.7761e-4 -0.1323,-4.7761e-4 -0.1629,45.1362037 -0.4259,122.7030357 -0.717,209.3989457 -10e-5,0.0283 -3e-4,0.0718 -4e-4,0.10015 0,0 0.094,-0.006 0.094,-0.006 0.2453,-0.0171 0.5107,-0.0372 0.756,-0.0544 87.3218,-0.0219 165.44861,-0.0389 210.91071,-0.0389 -45.4621,0 -123.58891,-0.0171 -210.91071,-0.0389 -0.2143,-0.015 -0.4441,-0.0322 -0.6623,-0.0478 0.3347,-86.66062 0.6317,-164.190516 0.7946,-209.31161048 0,0 -0.1323,-4.7761e-4 -0.1323,-4.7761e-4 z"
       id="path10"
       inkscape:connector-curvature="0"
       inkscape:path-effect="#path-effect12"
       inkscape:original-d="m -1099.9107,-0.84523809 -0.756,209.39880809 h 0.756 210.91071 v 0" />
    <path
       style="fill:#000000;fill-rule:nonzero;stroke:none;stroke-width:0.26458332px;stroke-linecap:butt;stroke-linejoin:miter;stroke-opacity:1"
       d="M 348.36176,-3.1130951 V 41.336904 c 0,24.997843 0,92.170636 0,177.799986 v 0.20815 l 0.18845,-0.0884 c -0.002,0.001 10.75269,-5.10327 29.14125,-11.92562 17.141,-6.35949 41.45691,-14.34364 67.40099,-19.43637 25.09692,-4.92643 52.12282,-7.22713 75.59052,-2.43342 11.57051,2.36349 22.27878,6.45208 31.46501,12.80381 22.59193,15.621 35.74728,44.70749 30.5011,94.98761 -2.65465,25.44251 -9.78681,54.93363 -21.91584,91.57396 -14.01833,42.34767 -26.74431,72.57351 -47.62872,128.98316 -17.90479,48.36158 -39.76532,111.20996 -52.05531,181.31016 -12.48761,71.22735 -17.32665,160.05776 5.9436,271.04451 23.41507,111.67742 76.37062,252.47682 190.41031,437.98732 114.50274,186.2639 293.30924,422.3987 580.63618,735.6889 288.1782,314.2185 687.1296,707.9602 1252.1177,1218.9059 566.1867,512.0297 1295.4835,1138.5505 2248.2707,1923.1095 954.0455,785.595 2118.9159,1718.7627 3549.1845,2840.4955 1430.9138,1122.2389 3102.3018,2413.4864 5046.8438,3899.7204 1943.396,1485.36 4125.886,3139.683 6537.199,4957.652 2406.62,1814.431 5012.102,3769.936 7737.361,5810.038 397.327,297.435 7933.579,5926.593 8330.906,6224.029 564.251,420.899 7472.353,5568.474 8036.603,5989.373 684.077,509.451 6003.291,4468.974 6687.367,4978.425 691.143,514.372 3608.371,2685.09 4299.513,3199.462 578.15,430.185 1687.83,1255.852 1109.679,825.666 1710.174,1272.446 -4149.635,-3087.592 -2439.462,-1815.146 1538.549,1144.853 -7311.47,-5441.286 -5772.921,-4296.433 1374.669,1023.303 -9682.747,-7211.03 -8308.078,-6187.727 1057.179,787.901 -10660.322,-7954.662 -9603.143,-7166.761 -3254.496,-2433.17 -6499.882,-4865.306 -9486.952,-7115.621 -3003.414,-2262.627 -5741.472,-4338.187 -8123.01,-6164.668 C 9950.7515,9428.3371 7970.7954,7885.4149 6366.8868,6602.0236 4762.2992,5318.089 3581.634,4331.9627 2714.3302,3559.85 1849.6251,2790.0507 1319.5265,2253.3704 988.04049,1854.6248 659.40826,1459.312 527.89742,1200.8809 477.68195,1011.1768 428.6088,825.78807 455.71603,691.97731 485.67183,594.01265 c 30.98745,-101.3385 66.6342,-177.337 83.92781,-237.78584 17.46883,-61.06132 18.54484,-103.31355 4.80506,-131.74067 l 0.23822,-0.11514 c 13.42237,27.77042 13.26957,71.63765 -5.56399,131.84269 C 551.52656,412.32316 512.3048,497.57774 440.7517,577.79525 368.89496,658.35315 249.65373,751.69193 34.98183,799.50306 -182.30248,847.89601 -515.56226,854.85743 -1062.0644,737.61496 -1611.9364,619.64957 -2385.5203,374.53947 -3502.3439,-91.81611 -4622.8416,-559.70586 -6069.3626,-1242.1511 -7942.2844,-2217.088 c -1876.0338,-976.5567 -4120.0856,-2215.4647 -6777.9236,-3752.838 -2658.891,-1537.9824 -5632.788,-3317.3408 -8894.083,-5318.615 -3258.555,-1999.594 -6685.673,-4148.1 -10178.459,-6369.966 -3484.728,-2216.741 -6934.614,-4442.765 -10178.69,-6553.749 -3229.078,-2101.223 -6221.917,-4067.467 -8741.353,-5730.139 -2492.61,-1644.969 -4621.766,-3058.826 -6047.98,-4007.496 -680.495,-452.643 -1869.864,-1246.331 -2550.359,-1698.974 -604.13,-403.048 555.63,370.178 1159.76,773.226 945.085,629.677 2555.588,1701.718 4499.484,2989.698 1973.829,1307.812 4374.668,2893.517 7019.704,4628.449 2656.631,1742.537 5521.294,3610.509 8478.929,5520.711 2962.035,1913.045 5936.852,3816.48 8857.616,5661.186 2921.425,1845.123 5703.976,3577.933 8321.206,5179.106 2616.006,1600.4248 4997.255,3026.7598 7150.769,4285.0093 2151.59,1257.126 4028.935,2319.0559 5663.891,3210.8602 1633.0496,890.764 2999.4436,1598.2568 4145.7699,2159.0147 1144.7754,559.99916 2062.2913,969.84973 2803.6796,1269.884251 740.2703,299.582039 1307.7733,490.808609 1749.5584,611.458589 441.0357,120.44531 764.53651,172.62455 1007.6945,187.75613 242.67632,15.1016 414.105109,-6.25348 539.271329,-40.71317 C 211.08296,752.39949 297.67317,702.66489 359.58934,654.01272 421.42508,605.42373 464.63293,553.01687 494.72916,508.1247 c 30.29462,-45.18809 51.10528,-88.4936 64.47014,-123.50996 13.61651,-35.6757 21.01077,-66.50432 23.67119,-91.33106 5.38847,-50.28457 -7.95276,-79.59632 -30.57204,-95.23622 -9.22182,-6.37635 -19.9653,-10.47648 -31.56252,-12.84542 -23.51734,-4.80385 -50.58305,-2.49625 -75.69444,2.43302 -25.96306,5.09645 -50.29352,13.08565 -67.44206,19.44794 -16.40651,6.08699 -27.38289,11.10991 -28.97309,11.84642 0,-85.53037 0,-152.614865 0,-177.592516 V -3.1130951 Z"
       id="path14"
       inkscape:connector-curvature="0"
       inkscape:path-effect="#path-effect16"
       inkscape:original-d="M 348.49405,-3.1130951 V 219.1369 v 0 0 c 0,0 182.18452,-85.42262 226.02976,5.29167" />
  </g>
</svg>
